<svg fill="#fff" width="198" height="198" xmlns="http://www.w3.org/2000/svg">
 <g>
  <g id="bg"/>
  <g stroke="null" id="Layer_1">
   <g stroke="null"  transform="translate(0, 20)">
    <g stroke="null" id="logo_1_">
     <g stroke="null" id="bg_3_">
      <g stroke="null" id="lens_2_">
       <path stroke="null" id="svg_1" d="m193.028194,95.396173l-14.533011,-10.55817c-3.105344,-2.235848 -4.595909,-5.713833 -4.595909,-9.316033l0,-54.281416c0,-3.726413 1.490565,-7.080185 4.595909,-9.316033l14.657225,-10.55817c1.863207,-1.366351 4.347482,-0.124214 4.347482,2.111634l0,89.806554c0,2.235848 -2.608489,3.477985 -4.471696,2.111634z" class="st3"/>
      </g>
      <path stroke="null" id="svg_2" d="m152.65872,0.248428l-119.245216,0c-5.713833,0 -9.812888,3.602199 -9.812888,9.191819l0,8.198109l-10.806598,0c-7.080185,0 -12.794018,5.092764 -12.794018,12.048735l0,77.882032c0,6.955971 5.713833,13.166659 12.794018,13.166659l34.158786,0l52.41821,31.426083l0,-31.426083l32.668221,0c7.080185,0 13.290873,-6.210688 13.290873,-13.166659l0,-9.191819l7.328612,0c5.713833,0 10.061315,-5.465406 10.061315,-11.055025l0,-77.882032c0,-5.58962 -4.347482,-9.191819 -10.061315,-9.191819zm-12.297163,107.320695c0,4.223268 -3.974841,8.198109 -8.322322,8.198109l-37.636771,0l0,27.575456l-46.083308,-27.575456l-35.525137,0c-4.347482,0 -7.825467,-3.974841 -7.825467,-8.198109l0,-77.882032c0,-4.223268 3.477985,-7.080185 7.825467,-7.080185l119.245216,0c4.347482,0 8.322322,2.856917 8.322322,7.080185l0,77.882032z" class="st3"/>
     </g>
     <path stroke="null" d="m96.886738,93.408753l-8.694964,0l0,-7.452826l-0.621069,0c-3.726413,4.968551 -9.56446,8.694964 -16.644645,8.694964c-14.905652,0 -23.352188,-12.421377 -23.352188,-26.084891c0,-13.166659 8.819177,-24.594326 23.103761,-24.594326c7.204398,0 13.042446,3.602199 16.893072,9.812888l0.621069,0l0,-8.694964l8.694964,0l0,48.319155zm-8.57075,-24.966967c0,-9.316033 -5.713833,-17.1415 -15.899362,-17.1415c-9.688674,0 -15.402507,8.322322 -15.402507,17.1415c0,9.067605 5.58962,17.389927 15.402507,17.389927c10.309743,0.124214 15.899362,-7.949681 15.899362,-17.389927z" class="st3"/>
    </g>
   </g>
  </g>
 </g>
</svg>
